<?xml version="1.0" encoding="utf-8"?>
<!-- Generator: Adobe Illustrator 28.0.0, SVG Export Plug-In . SVG Version: 6.00 Build 0)  -->
<svg version="1.1" id="Layer_1" xmlns="http://www.w3.org/2000/svg" xmlns:xlink="http://www.w3.org/1999/xlink" x="0px" y="0px"
	 width="641.3px" height="191.2px" viewBox="0 0 641.3 191.2" enable-background="new 0 0 641.3 191.2" xml:space="preserve">
<path fill="#FFFFFF" d="M37.2,75H0v89.4h37.2c29.3,0,42.1-20.6,42.1-44.9S66.5,75,37.2,75z M34.5,153.2H13.8V86.1h20.7
	c22.2,0,30.2,11,30.2,33.3S56.7,153.2,34.5,153.2z"/>
<path fill="#FFFFFF" d="M154.1,129.4c0-19.2-11-34.4-32.4-34.4c-23,0-34,16-34,35.6s10.1,35.9,34,35.9s31-13.2,32.2-22.4h-12.4
	c-1.9,7-7.3,12.5-19.5,12.5c-11.6,0-20.2-5.1-21.2-22h52.9C154.1,132.8,154.1,131.1,154.1,129.4L154.1,129.4z M101,124.7
	c1.6-14.9,9.3-19.8,20.8-19.8s18.7,6.2,19.4,19.8C141.2,124.7,101,124.7,101,124.7z"/>
<path fill="#FFFFFF" d="M228.4,129.4c0-19.2-11-34.4-32.4-34.4c-23,0-34,16-34,35.6s10.1,35.9,34,35.9s31-13.2,32.2-22.4h-12.4
	c-1.9,7-7.3,12.5-19.5,12.5c-11.6,0-20.2-5.1-21.2-22h52.9C228.4,132.8,228.4,131.1,228.4,129.4L228.4,129.4z M175.3,124.7
	c1.6-14.9,9.3-19.8,20.8-19.8s18.7,6.2,19.4,19.8H175.3z"/>
<path fill="#FFFFFF" d="M277.8,95c-12.1,0-20.3,5-24.9,13.7V97.2h-13.4v94.1h13.4v-38.4c4.6,8.7,12.8,13.7,24.9,13.7
	c21.6,0,31.3-16,31.3-35.7S299.4,95,277.8,95L277.8,95z M275,155.7c-14.1,0-22-7.8-22-25s7.9-25,22-25c14.9,0,20.6,8.3,20.6,25
	S289.9,155.7,275,155.7z"/>
<path fill="#FFFFFF" d="M352.4,155.7c-13,0-21.1-6.2-21.1-25s8.2-25,21.4-25s18,7.5,19.1,16.5h12.6c-0.7-15.7-11.3-27.3-32.2-27.3
	c-22.6,0-34.4,15.7-34.4,35.7s12,35.7,34.7,35.7c21.2,0,32.1-13.2,32.6-28.1h-12.6C371.2,147.9,365.4,155.7,352.4,155.7L352.4,155.7
	z"/>
<path fill="#FFFFFF" d="M458.7,129.4c0-19.2-11-34.4-32.4-34.4c-23,0-34,16-34,35.6s10.1,35.9,34,35.9s31-13.2,32.2-22.4h-12.4
	c-1.9,7-7.3,12.5-19.5,12.5c-11.6,0-20.2-5.1-21.2-22h52.9C458.7,132.8,458.7,131.1,458.7,129.4L458.7,129.4z M405.6,124.7
	c1.6-14.9,9.3-19.8,20.8-19.8s18.7,6.2,19.4,19.8H405.6z"/>
<rect x="469.7" y="70.3" fill="#FFFFFF" width="13.4" height="94.1"/>
<rect x="499.4" y="70.3" fill="#FFFFFF" width="13.4" height="94.1"/>
<path fill="#FFFFFF" d="M556,0v21.1c15.5,0,28,12.6,28,28s-12.5,28-28,28v21.2c27.2,0,49.2-22,49.2-49.2S583.2,0,556,0z"/>
<path fill="#FFFFFF" d="M641.3,89.3V68.1c-27.2,0-49.2,22-49.2,49.2s22,49.2,49.2,49.2v-21.1c-15.5,0-28-12.6-28-28
	S625.8,89.2,641.3,89.3L641.3,89.3z"/>
<path fill="#FFFFFF" d="M548.9,152.9c0,6.7-5.4,12-12,12s-11.9-5.3-11.9-12s5.3-11.9,11.9-11.9S548.9,146.4,548.9,152.9z
	 M546.3,152.9c0-5.2-4.1-9.3-9.3-9.3s-9.3,4.2-9.3,9.3s4,9.4,9.3,9.4S546.3,158.1,546.3,152.9z M539.9,153.2c1.5,0.3,2,1.2,2,2.6
	v1.1c0,0.8,0.1,1.6,0.3,2.2h-2.3c-0.2-0.5-0.3-1.1-0.3-2.2v-1.1c0-1.3-0.5-1.9-2-1.9h-2.8v5.2h-2.4v-12.3h5.8c2.5,0,4,1.2,4,3.4
	C542.3,151.7,541.4,152.9,539.9,153.2L539.9,153.2z M537.8,152.1c1.3,0,1.9-0.6,1.9-1.7s-0.5-1.6-1.7-1.6h-3.2v3.3H537.8
	L537.8,152.1z"/>
</svg>
