<svg width="408" height="84" viewBox="0 0 408 84" fill="none" xmlns="http://www.w3.org/2000/svg">
<path d="M393.4 13.4V25.9H405.9V38.2H393.4V50.7C393.4 55.8 395.7 56.5 399 56.7H401.1L406.8 56.3L407.9 67.3C407.9 67.3 403.9 69.2 395.8 69.2C387.7 69.2 382.7 64.9 381 58.5C380.5 56.6 380.3 54.6 380.3 52.6V13.4H393.4Z" fill="#0C3258"/>
<path d="M369.6 28.8C366.4 25.9 362.2 24.4 357.9 24.5C352.7 24.5 348.7 26.4 344.9 28.8L343.9 25.9H332.7V67.6H345.8V37.3C349.8 35.7 355.7 34.3 359.2 37.5C360.5 38.7 361 40.6 361 43.1V67.6H374.1V39.9C374.1 35.2 372.6 31.5 369.6 28.8Z" fill="#0C3258"/>
<path d="M312.4 31V67.6H325.4V31C321.1 32.2 316.7 32.2 312.4 31Z" fill="#0C3258"/>
<path d="M318.9 4.34695e-07C313.5 -0.0999996 309.2 4.2 309.1 9.6C309 15 313.3 19.3 318.7 19.4C324.1 19.5 328.4 15.2 328.5 9.8C328.5 9.7 328.5 9.7 328.5 9.6C328.5 4.3 324.2 4.34695e-07 318.9 4.34695e-07Z" fill="#0D9BD5"/>
<path d="M284.8 37.2C279.5 37.2 275.2 41.5 275.2 46.8C275.2 47 275.2 47.2 275.2 47.4C275.5 52.3 279.4 56.2 284.3 56.5C289.6 57.2 294.5 53.4 295.1 48.1C295.7 42.8 292 37.9 286.7 37.3C286.1 37.2 285.4 37.2 284.8 37.2ZM307.1 46.9C307.1 59.2 297.1 69.2 284.8 69.2C284.5 69.2 284.3 69.2 284 69.2C272.4 68.6 263.1 59.3 262.5 47.7C262.3 35.4 272.1 25.2 284.4 25C296.7 24.8 306.9 34.6 307.1 46.9Z" fill="#0C3258"/>
<path d="M235.8 57.1C233.2 57 230.7 56.4 228.3 55.4V37.3C230.7 36.3 233.2 35.7 235.8 35.6C239 35.6 245.3 36.2 245.3 46.4C245.3 56.6 239 57.1 235.8 57.1ZM249.7 26.9C246.7 25.2 243.3 24.4 239.9 24.6C235.4 24.8 231.1 26.2 227.4 28.8L226.4 25.9H215.2V83.9H228.3V64.5C231.8 66.8 235.8 68 239.9 68.2C243.3 68.3 246.7 67.5 249.7 65.8C253.9 63.3 258.1 57.2 258.1 46.4C258.1 35.6 253.9 29.4 249.7 26.9Z" fill="#0C3258"/>
<path d="M181.5 43C181.5 43 183 35.1 190.9 35.1C198.8 35.1 198.8 43 198.8 43H181.5ZM190.6 24.6C177.4 24.6 168.5 34 168.7 47.6C169 59.5 178.7 69.1 190.6 69.2C196.7 69.4 202.7 68.1 208.2 65.5L206.6 55.7C206.6 55.7 201.6 58 192.6 58C186.8 58 183.1 54.8 182.3 51.2H209.2C213 35.5 202.9 24.6 190.6 24.6Z" fill="#0C3258"/>
<path d="M159 28.8C155.8 25.9 151.6 24.4 147.3 24.5C141.5 24.5 137.1 26.9 132.9 29.7L132 28.8C128.8 25.9 124.6 24.4 120.3 24.5C116.1 24.6 112 25.8 108.4 28.1L107.6 25.9H96.4V67.6H109.5V37.5C113.2 35.9 118.6 34.5 121.8 37.7C123 39.3 123.6 41.2 123.5 43.2V67.6H136.5V37.5C140.1 35.9 145.5 34.5 148.7 37.7C149.9 38.9 150.4 40.8 150.4 43.2V67.6H163.5V39.9C163.5 35.2 162 31.5 159 28.8Z" fill="#0C3258"/>
<path d="M68.9 37.2C63.5 37.1 59.2 41.4 59.1 46.8C59 52.2 63.3 56.5 68.7 56.6C74.1 56.7 78.4 52.4 78.5 47V46.9C78.6 41.6 74.3 37.3 69 37.2H68.9ZM91.2 46.9C91.2 59.2 81.2 69.2 68.9 69.2C56.6 69.2 46.6 59.2 46.6 46.9C46.6 34.6 56.6 24.6 68.9 24.6C81.2 24.6 91.2 34.6 91.2 46.9Z" fill="#0C3258"/>
<path d="M13.1 8.7V28.3C16.7 25.9 20.9 24.6 25.2 24.5C29.5 24.4 33.7 25.9 36.9 28.8C39.9 31.5 41.4 35.2 41.4 39.9V67.6H28.3V43.1C28.3 40.6 27.7 38.7 26.5 37.5C23 34.3 17.1 35.7 13.1 37.3V67.6H0V8.7H13.1Z" fill="#0C3258"/>
</svg>
