<?xml version="1.0" encoding="utf-8"?>
<!-- Generator: Adobe Illustrator 28.0.0, SVG Export Plug-In . SVG Version: 6.00 Build 0)  -->
<svg version="1.1" id="Layer_1" xmlns="http://www.w3.org/2000/svg" xmlns:xlink="http://www.w3.org/1999/xlink" x="0px" y="0px"
	 width="641.3px" height="191.2px" viewBox="0 0 641.3 191.2" enable-background="new 0 0 641.3 191.2" xml:space="preserve">
<path fill="#150633" d="M37.1,74.6H-0.1V164h37.2c29.3,0,42.1-20.6,42.1-44.9S66.4,74.6,37.1,74.6z M34.4,152.8H13.7V85.8h20.7
	c22.2,0,30.2,11,30.2,33.3S56.6,152.8,34.4,152.8z"/>
<path fill="#150633" d="M153.9,129c0-19.2-11-34.4-32.4-34.4c-23,0-34,16-34,35.6s10.1,35.9,34,35.9s31-13.2,32.2-22.4h-12.4
	c-1.9,7-7.3,12.5-19.5,12.5c-11.6,0-20.2-5.1-21.2-22h52.9C154,132.4,154,130.8,153.9,129L153.9,129z M100.9,124.3
	c1.6-14.9,9.3-19.8,20.8-19.8s18.7,6.2,19.4,19.8C141.1,124.3,100.9,124.3,100.9,124.3z"/>
<path fill="#150633" d="M228.3,129c0-19.2-11-34.4-32.4-34.4c-23,0-34,16-34,35.6s10.1,35.9,34,35.9s31-13.2,32.2-22.4h-12.4
	c-1.9,7-7.3,12.5-19.5,12.5c-11.6,0-20.2-5.1-21.2-22h52.9C228.3,132.4,228.3,130.8,228.3,129L228.3,129z M175.2,124.3
	c1.6-14.9,9.3-19.8,20.8-19.8s18.7,6.2,19.4,19.8H175.2z"/>
<path fill="#150633" d="M277.7,94.6c-12.1,0-20.3,5-24.9,13.7V96.8h-13.4v94.1h13.4v-38.4c4.6,8.7,12.8,13.7,24.9,13.7
	c21.6,0,31.3-16,31.3-35.7S299.3,94.6,277.7,94.6z M274.8,155.4c-14.1,0-22-7.8-22-25s7.9-25,22-25c14.9,0,20.6,8.3,20.6,25
	S289.8,155.4,274.8,155.4z"/>
<path fill="#150633" d="M352.3,155.4c-13,0-21.1-6.2-21.1-25s8.2-25,21.4-25s18,7.5,19.1,16.5h12.6c-0.7-15.7-11.3-27.3-32.2-27.3
	c-22.6,0-34.4,15.7-34.4,35.7s12,35.7,34.7,35.7c21.2,0,32.1-13.2,32.6-28.1h-12.6C371.1,147.6,365.3,155.4,352.3,155.4L352.3,155.4
	z"/>
<path fill="#150633" d="M458.5,129c0-19.2-11-34.4-32.4-34.4c-23,0-34,16-34,35.6s10.1,35.9,34,35.9s31-13.2,32.2-22.4h-12.4
	c-1.9,7-7.3,12.5-19.5,12.5c-11.6,0-20.2-5.1-21.2-22h52.9C458.6,132.4,458.6,130.8,458.5,129L458.5,129z M405.5,124.3
	c1.6-14.9,9.3-19.8,20.8-19.8s18.7,6.2,19.4,19.8H405.5z"/>
<rect x="469.6" y="69.9" fill="#150633" width="13.4" height="94.1"/>
<rect x="499.3" y="69.9" fill="#150633" width="13.4" height="94.1"/>
<path fill="#150633" d="M555.9-0.4v21.1c15.5,0,28,12.5,28,28s-12.5,28-28,28V98c27.2,0,49.2-22,49.2-49.2S583.1-0.4,555.9-0.4z"/>
<path fill="#150633" d="M641.2,88.9V67.8c-27.2,0-49.2,22-49.2,49.2s22,49.2,49.2,49.2V145c-15.5,0-28-12.6-28-28
	S625.7,88.9,641.2,88.9L641.2,88.9z"/>
<path fill="#150633" d="M548.8,152.6c0,6.7-5.4,12-12,12s-11.9-5.3-11.9-12s5.3-11.9,11.9-11.9S548.8,146,548.8,152.6z M546.2,152.6
	c0-5.2-4.1-9.3-9.3-9.3s-9.3,4.2-9.3,9.3s4,9.4,9.3,9.4S546.2,157.7,546.2,152.6z M539.8,152.8c1.5,0.3,2,1.2,2,2.6v1.1
	c0,0.8,0.1,1.6,0.3,2.2h-2.3c-0.2-0.5-0.3-1.1-0.3-2.2v-1.1c0-1.3-0.5-1.9-2-1.9h-2.8v5.2h-2.4v-12.3h5.8c2.5,0,4,1.2,4,3.4
	C542.2,151.4,541.3,152.5,539.8,152.8L539.8,152.8z M537.7,151.8c1.3,0,1.9-0.6,1.9-1.7s-0.5-1.6-1.7-1.6h-3.2v3.3H537.7
	L537.7,151.8z"/>
</svg>
